<svg width="333" height="59" viewBox="0 0 333 59" fill="none" xmlns="http://www.w3.org/2000/svg">
<g filter="url(#filter0_i_143_36)">
<rect width="333" height="59" rx="10" fill="#D63517"/>
<path d="M121.626 36.6257C120.318 36.6257 119.136 36.3437 118.08 35.7797C117.036 35.2157 116.214 34.4417 115.614 33.4577C115.026 32.4617 114.732 31.3457 114.732 30.1097C114.732 28.8737 115.026 27.7637 115.614 26.7797C116.214 25.7837 117.036 25.0037 118.08 24.4397C119.136 23.8757 120.318 23.5937 121.626 23.5937C122.934 23.5937 124.11 23.8757 125.154 24.4397C126.198 25.0037 127.02 25.7837 127.62 26.7797C128.22 27.7637 128.52 28.8737 128.52 30.1097C128.52 31.3457 128.22 32.4617 127.62 33.4577C127.02 34.4417 126.198 35.2157 125.154 35.7797C124.11 36.3437 122.934 36.6257 121.626 36.6257ZM121.626 34.1417C122.37 34.1417 123.042 33.9737 123.642 33.6377C124.242 33.2897 124.71 32.8097 125.046 32.1977C125.394 31.5857 125.568 30.8897 125.568 30.1097C125.568 29.3297 125.394 28.6337 125.046 28.0217C124.71 27.4097 124.242 26.9357 123.642 26.5997C123.042 26.2517 122.37 26.0777 121.626 26.0777C120.882 26.0777 120.21 26.2517 119.61 26.5997C119.01 26.9357 118.536 27.4097 118.188 28.0217C117.852 28.6337 117.684 29.3297 117.684 30.1097C117.684 30.8897 117.852 31.5857 118.188 32.1977C118.536 32.8097 119.01 33.2897 119.61 33.6377C120.21 33.9737 120.882 34.1417 121.626 34.1417ZM138.563 29.0297H135.287V36.4097H132.497V29.0297H129.221V26.7257H138.563V29.0297ZM149.69 26.7257V36.4097H146.882V29.0297H142.85V36.4097H140.06V26.7257H149.69ZM158.089 26.5817C158.989 26.5817 159.805 26.7917 160.537 27.2117C161.281 27.6197 161.863 28.2017 162.283 28.9577C162.703 29.7017 162.913 30.5717 162.913 31.5677C162.913 32.5637 162.703 33.4397 162.283 34.1957C161.863 34.9397 161.281 35.5217 160.537 35.9417C159.805 36.3497 158.989 36.5537 158.089 36.5537C156.853 36.5537 155.881 36.1637 155.173 35.3837V39.9017H152.365V26.7257H155.047V27.8417C155.743 27.0017 156.757 26.5817 158.089 26.5817ZM157.603 34.2497C158.323 34.2497 158.911 34.0097 159.367 33.5297C159.835 33.0377 160.069 32.3837 160.069 31.5677C160.069 30.7517 159.835 30.1037 159.367 29.6237C158.911 29.1317 158.323 28.8857 157.603 28.8857C156.883 28.8857 156.289 29.1317 155.821 29.6237C155.365 30.1037 155.137 30.7517 155.137 31.5677C155.137 32.3837 155.365 33.0377 155.821 33.5297C156.289 34.0097 156.883 34.2497 157.603 34.2497ZM168.484 26.5817C169.984 26.5817 171.136 26.9417 171.94 27.6617C172.744 28.3697 173.146 29.4437 173.146 30.8837V36.4097H170.518V35.2037C169.99 36.1037 169.006 36.5537 167.566 36.5537C166.822 36.5537 166.174 36.4277 165.622 36.1757C165.082 35.9237 164.668 35.5757 164.38 35.1317C164.092 34.6877 163.948 34.1837 163.948 33.6197C163.948 32.7197 164.284 32.0117 164.956 31.4957C165.64 30.9797 166.69 30.7217 168.106 30.7217H170.338C170.338 30.1097 170.152 29.6417 169.78 29.3177C169.408 28.9817 168.85 28.8137 168.106 28.8137C167.59 28.8137 167.08 28.8977 166.576 29.0657C166.084 29.2217 165.664 29.4377 165.316 29.7137L164.308 27.7517C164.836 27.3797 165.466 27.0917 166.198 26.8877C166.942 26.6837 167.704 26.5817 168.484 26.5817ZM168.268 34.6637C168.748 34.6637 169.174 34.5557 169.546 34.3397C169.918 34.1117 170.182 33.7817 170.338 33.3497V32.3597H168.412C167.26 32.3597 166.684 32.7377 166.684 33.4937C166.684 33.8537 166.822 34.1417 167.098 34.3577C167.386 34.5617 167.776 34.6637 168.268 34.6637ZM182.984 31.3517C184.124 31.7357 184.694 32.5037 184.694 33.6557C184.694 34.5317 184.364 35.2097 183.704 35.6897C183.044 36.1697 182.06 36.4097 180.752 36.4097H175.586V26.7257H180.536C181.748 26.7257 182.696 26.9477 183.38 27.3917C184.064 27.8237 184.406 28.4357 184.406 29.2277C184.406 29.7077 184.28 30.1337 184.028 30.5057C183.788 30.8657 183.44 31.1477 182.984 31.3517ZM178.16 30.7037H180.284C181.268 30.7037 181.76 30.3557 181.76 29.6597C181.76 28.9757 181.268 28.6337 180.284 28.6337H178.16V30.7037ZM180.518 34.5017C181.55 34.5017 182.066 34.1477 182.066 33.4397C182.066 33.0677 181.946 32.7977 181.706 32.6297C181.466 32.4497 181.088 32.3597 180.572 32.3597H178.16V34.5017H180.518ZM186.783 26.7257H189.573V32.4857L194.289 26.7257H196.863V36.4097H194.073V30.6497L189.375 36.4097H186.783V26.7257ZM207.698 29.0297H204.422V36.4097H201.632V29.0297H198.356V26.7257H207.698V29.0297ZM214.433 29.8217C215.693 29.8337 216.659 30.1217 217.331 30.6857C218.003 31.2377 218.339 32.0237 218.339 33.0437C218.339 34.1117 217.961 34.9457 217.205 35.5457C216.461 36.1337 215.411 36.4277 214.055 36.4277L209.195 36.4097V26.7257H211.985V29.8217H214.433ZM213.803 34.4297C214.343 34.4417 214.757 34.3277 215.045 34.0877C215.333 33.8477 215.477 33.4877 215.477 33.0077C215.477 32.5397 215.333 32.1977 215.045 31.9817C214.769 31.7657 214.355 31.6517 213.803 31.6397L211.985 31.6217V34.4297H213.803Z" fill="white"/>
</g>
<defs>
<filter id="filter0_i_143_36" x="0" y="0" width="333" height="63" filterUnits="userSpaceOnUse" color-interpolation-filters="sRGB">
<feFlood flood-opacity="0" result="BackgroundImageFix"/>
<feBlend mode="normal" in="SourceGraphic" in2="BackgroundImageFix" result="shape"/>
<feColorMatrix in="SourceAlpha" type="matrix" values="0 0 0 0 0 0 0 0 0 0 0 0 0 0 0 0 0 0 127 0" result="hardAlpha"/>
<feOffset dy="4"/>
<feGaussianBlur stdDeviation="2"/>
<feComposite in2="hardAlpha" operator="arithmetic" k2="-1" k3="1"/>
<feColorMatrix type="matrix" values="0 0 0 0 0 0 0 0 0 0 0 0 0 0 0 0 0 0 0.25 0"/>
<feBlend mode="normal" in2="shape" result="effect1_innerShadow_143_36"/>
</filter>
</defs>
</svg>
