<svg xmlns="http://www.w3.org/2000/svg" viewBox="0 0 171.11 62.06"><defs><style>.cls-1{fill:#fff;}.cls-2{fill:#1dab9e;}.cls-3{fill:#d63517;}.cls-4{fill:#1961ac;}</style></defs><title>Ресурс 1</title><g id="Слой_2" data-name="Слой 2"><g id="Слой_1-2" data-name="Слой 1"><circle class="cls-1" cx="31.03" cy="31.03" r="30.44"/><path class="cls-2" d="M31,1.61a29.42,29.42,0,0,1,20.8,50.22,29.42,29.42,0,1,1-41.6-41.6A29.21,29.21,0,0,1,31,1.61M31,0a31,31,0,1,0,31,31A31,31,0,0,0,31,0Z"/><path class="cls-3" d="M31.05,17.79A12.74,12.74,0,0,1,36.94,13c4.83-1.72,9.42-1.24,13.47,2s5.38,7.87,4.76,13c-.84,6.89-4.56,12.59-9.09,17.32C42,49.71,37.4,53.51,32,55.85a2,2,0,0,1-1.72.18c-5.07-1.8-13.56-8.89-18.52-15.55A24.24,24.24,0,0,1,6.74,25.86c0-6.09,3.48-11.22,8.77-13a13.08,13.08,0,0,1,15.17,4.6A4.18,4.18,0,0,0,31.05,17.79Z"/><path class="cls-1" d="M31.56,48.65H31.5a.41.41,0,0,1-.34-.41V25.16L28.06,36.54a.4.4,0,0,1-.75.08L25.52,33l-.72,1.68a.4.4,0,0,1-.37.24h-11a.41.41,0,0,1,0-.81H24.16l1-2.24a.42.42,0,0,1,.37-.24.4.4,0,0,1,.37.22l1.67,3.43,3.63-13.72a.4.4,0,0,1,.43-.31.4.4,0,0,1,.36.4l0,24,3.18-11.3a.4.4,0,0,1,.39-.28h13a.41.41,0,0,1,0,.81H35.83L32,48.37A.42.42,0,0,1,31.56,48.65Z"/><path class="cls-4" d="M77,54.71a1.23,1.23,0,0,1-.59,1,3.57,3.57,0,0,1-1.33.55,7.63,7.63,0,0,1-1.53.15,5.07,5.07,0,0,1-3.94-1.62,6.5,6.5,0,0,1-1.46-4.55,5.12,5.12,0,0,1,1.59-3.93,5.61,5.61,0,0,1,4-1.48,4.82,4.82,0,0,1,2.64.7,2.25,2.25,0,0,1,1.11,2,1.61,1.61,0,0,1-.3,1,1,1,0,0,1-.79.37h-.67v-.46c0-1.28-.72-1.92-2.15-1.92a3,3,0,0,0-2.38,1.05,3.78,3.78,0,0,0-.92,2.6,4.73,4.73,0,0,0,1,3.16,3.89,3.89,0,0,0,3.12,1.16A6.47,6.47,0,0,0,77,54Z"/><path class="cls-4" d="M88,54.78c0,.55-.36,1-1.06,1.25a7.08,7.08,0,0,1-2.52.41,5.23,5.23,0,0,1-4-1.58A6.45,6.45,0,0,1,79,50.29a5.43,5.43,0,0,1,1.46-3.89,4.91,4.91,0,0,1,3.74-1.54,4.42,4.42,0,0,1,3.45,1.38,5.24,5.24,0,0,1,1.24,3.66c0,1.06-.63,1.6-1.89,1.6H81.12q.54,3.09,4.21,3.09A7.2,7.2,0,0,0,88,54.06ZM81.85,47.5A4,4,0,0,0,81,49.92h5a.67.67,0,0,0,.56-.24.84.84,0,0,0,.18-.52A2.47,2.47,0,0,0,86,47.24a3.13,3.13,0,0,0-4.16.26Z"/><path class="cls-4" d="M93.48,56.21V46.92H89.71V45.09h8.92a.58.58,0,0,1,.63.38,6.45,6.45,0,0,1,.11,1.45h-4v9.29Z"/><path class="cls-4" d="M107.93,55.29a4.83,4.83,0,0,1-3,.92h-.46a3.75,3.75,0,0,1-2.5-.72,2.86,2.86,0,0,1-.83-2.28V45.9c0-.41.12-.67.36-.76a5.72,5.72,0,0,1,1.61-.14v4.35h1.71q4.32,0,4.32,3.21A3.21,3.21,0,0,1,107.93,55.29Zm-4.8-4.3v2a1.37,1.37,0,0,0,1.57,1.53h.16a2.66,2.66,0,0,0,1.58-.45,1.56,1.56,0,0,0,.64-1.38c0-1.15-.8-1.73-2.41-1.73Z"/><path class="cls-4" d="M119.42,49.9l3.17-.37v0q-.16-2.82-3.24-2.82a7.52,7.52,0,0,0-2.75.64v-.69c0-.53.38-.95,1.14-1.27a6.11,6.11,0,0,1,2.44-.49q4.13,0,4.42,4.42l.41,6c0,.5-.07.79-.31.89a5.81,5.81,0,0,1-1.72.15l-.14-2.22a4.19,4.19,0,0,1-3.93,2.36,3.12,3.12,0,0,1-2.52-1,3.54,3.54,0,0,1-.85-2.37C115.54,51.26,116.83,50.21,119.42,49.9Zm-1.12,4.45a1.65,1.65,0,0,0,1.33.52,2.42,2.42,0,0,0,2.08-1.18,5.06,5.06,0,0,0,.88-2.68l-3,.37a2.45,2.45,0,0,0-1.31.53,1.4,1.4,0,0,0-.47,1.09A2,2,0,0,0,118.3,54.35Z"/><path class="cls-4" d="M137,56.15a5,5,0,0,1-1.64.15V48.61a1.9,1.9,0,0,0-.37-1.3,1.54,1.54,0,0,0-1.22-.41h-4.26v9.31h-2v-10c0-.54.1-.86.31-1a5.19,5.19,0,0,1,1.65-.15h4.53a3.62,3.62,0,0,1,2.55.71,3.42,3.42,0,0,1,.71,2.48v6.94Q137.32,56,137,56.15Z"/><path class="cls-4" d="M142.62,56.21V46.92h-3.77V45.09h8.93a.57.57,0,0,1,.62.38,5.89,5.89,0,0,1,.11,1.45h-3.95v9.29Z"/><path class="cls-4" d="M158.27,54.78c0,.55-.36,1-1.07,1.25a7,7,0,0,1-2.52.41,5.2,5.2,0,0,1-4-1.58,6.45,6.45,0,0,1-1.49-4.57,5.43,5.43,0,0,1,1.46-3.89,4.89,4.89,0,0,1,3.74-1.54,4.4,4.4,0,0,1,3.44,1.38,5.2,5.2,0,0,1,1.25,3.66c0,1.06-.63,1.6-1.89,1.6H151.4q.54,3.09,4.21,3.09a7.2,7.2,0,0,0,2.66-.53Zm-6.14-7.28a4,4,0,0,0-.82,2.42h5a.64.64,0,0,0,.55-.24.8.8,0,0,0,.19-.52,2.47,2.47,0,0,0-.73-1.92,3.13,3.13,0,0,0-4.16.26Z"/><path class="cls-4" d="M168.16,56.15a4.34,4.34,0,0,1-1-1.19l-2.36-3.26h-1.52v4.51h-2V46.11c0-.54.11-.86.31-1a5.23,5.23,0,0,1,1.66-.15v5h1.41a1.83,1.83,0,0,0,1.35-.53,3.35,3.35,0,0,0,.78-1.3l.55-1.52a3.19,3.19,0,0,1,.86-1.3,2.25,2.25,0,0,1,1.54-.53,1.71,1.71,0,0,1,1,.26.82.82,0,0,1,.39.74v.46h-.21a1.82,1.82,0,0,0-1.38.56,3.12,3.12,0,0,0-.74,1.31A7.5,7.5,0,0,1,168,49.8a3.67,3.67,0,0,1-1.26,1.33L169.06,54a2.28,2.28,0,0,0,1.78,1h.21v.53a.74.74,0,0,1-.53.67,2.73,2.73,0,0,1-1.14.23A2.14,2.14,0,0,1,168.16,56.15Z"/><path class="cls-2" d="M99.85,24a6.36,6.36,0,0,0-2.4-5.29,10,10,0,0,0-6.38-1.9,10.43,10.43,0,0,0-6.21,1.76A5.28,5.28,0,0,0,82.41,23c0,1.8,1.14,2.71,3.44,2.71h1.27v-.78A3.79,3.79,0,0,1,88,22.36a3.18,3.18,0,0,1,2.54-1,3.62,3.62,0,0,1,2.55.85,3.17,3.17,0,0,1,.93,2.47c0,3.28-4.41,6.92-11.73,10.24V39.3H99.77V37.23a2.66,2.66,0,0,0-2.66-2.65H92Q99.85,30,99.85,24Z"/><path class="cls-2" d="M131.63,15.55a3.66,3.66,0,0,0-3.41,2.36L119.55,41h2.53a3.28,3.28,0,0,0,3.06-2.12l8.76-23.34Z"/><path class="cls-2" d="M110.86,16.76c-5.92,0-9.49,5.14-9.49,11.48s3.57,11.49,9.49,11.47,9.49-5.14,9.49-11.47S116.88,16.77,110.86,16.76Zm0,18.12c-2.71,0-3.85-3-3.85-6.7s1.39-6.8,3.85-6.71c2.62,0,3.85,3,3.85,6.71S113.48,34.92,110.86,34.88Z"/><path class="cls-2" d="M148.41,27.87a6.06,6.06,0,0,0,2-4.59c0-4.15-3.61-6.67-8.07-6.67s-8.07,2.52-8.06,6.67a6,6,0,0,0,2,4.58A6.12,6.12,0,0,0,133.56,33c0,4.31,3.92,6.88,8.76,6.88s8.76-2.52,8.77-6.88A6.16,6.16,0,0,0,148.41,27.87Zm-6-6.94c1.76,0,3.23.85,3.19,2.35s-1.43,2.35-3.19,2.35-3.2-.74-3.18-2.35S140.6,20.93,142.36,20.93Zm0,14.49c-1.91,0-3.48-.77-3.46-2.42s1.55-2.42,3.46-2.42,3.51.87,3.46,2.42S144.28,35.42,142.37,35.42Z"/><path class="cls-2" d="M161.62,16.76c-5.91,0-9.49,5.14-9.49,11.48s3.58,11.49,9.49,11.47,9.49-5.14,9.49-11.47S167.64,16.77,161.62,16.76Zm0,18.12c-2.71,0-3.85-3-3.85-6.7s1.4-6.8,3.85-6.71c2.63,0,3.85,3,3.85,6.71S164.25,34.92,161.62,34.88Z"/><path class="cls-2" d="M74,18.85v.52h0v.39c-.37,1.9-6.83,3.81-6.83,3.81a26.78,26.78,0,0,1,1,5.12A22.26,22.26,0,0,0,74,26.3v13H79.7V17H75.83A1.83,1.83,0,0,0,74,18.85Z"/></g></g></svg>