<svg width="290" height="60" viewBox="0 0 290 60" fill="none" xmlns="http://www.w3.org/2000/svg">
<g filter="url(#filter0_i_143_89)">
<rect width="290" height="60" rx="10" fill="#D63517"/>
<path d="M66.232 30.1348C66.964 30.3868 67.534 30.7828 67.942 31.3228C68.362 31.8508 68.572 32.4688 68.572 33.1768C68.572 33.9448 68.32 34.6108 67.816 35.1748C67.312 35.7388 66.628 36.1708 65.764 36.4708C64.912 36.7708 63.976 36.9208 62.956 36.9208C62.092 36.9208 61.228 36.8128 60.364 36.5968C59.512 36.3808 58.702 36.0508 57.934 35.6068L58.834 33.5188C59.386 33.8548 59.992 34.1128 60.652 34.2928C61.324 34.4608 61.978 34.5448 62.614 34.5448C63.478 34.5448 64.192 34.3888 64.756 34.0768C65.332 33.7648 65.62 33.3268 65.62 32.7628C65.62 32.2948 65.422 31.9408 65.026 31.7008C64.642 31.4608 64.114 31.3408 63.442 31.3408H60.364V29.1448H63.226C63.814 29.1448 64.27 29.0248 64.594 28.7848C64.93 28.5448 65.098 28.2148 65.098 27.7948C65.098 27.3028 64.858 26.9188 64.378 26.6428C63.91 26.3668 63.304 26.2288 62.56 26.2288C62.008 26.2288 61.438 26.3068 60.85 26.4628C60.262 26.6068 59.704 26.8288 59.176 27.1288L58.294 24.8608C59.626 24.1768 61.066 23.8348 62.614 23.8348C63.598 23.8348 64.504 23.9788 65.332 24.2668C66.16 24.5548 66.82 24.9748 67.312 25.5268C67.804 26.0788 68.05 26.7208 68.05 27.4528C68.05 28.0528 67.888 28.5868 67.564 29.0548C67.24 29.5228 66.796 29.8828 66.232 30.1348ZM74.4265 26.8768C75.9265 26.8768 77.0785 27.2368 77.8825 27.9568C78.6865 28.6648 79.0885 29.7388 79.0885 31.1788V36.7048H76.4605V35.4988C75.9325 36.3988 74.9485 36.8488 73.5085 36.8488C72.7645 36.8488 72.1165 36.7228 71.5645 36.4708C71.0245 36.2188 70.6105 35.8708 70.3225 35.4268C70.0345 34.9828 69.8905 34.4788 69.8905 33.9148C69.8905 33.0148 70.2265 32.3068 70.8985 31.7908C71.5825 31.2748 72.6325 31.0168 74.0485 31.0168H76.2805C76.2805 30.4048 76.0945 29.9368 75.7225 29.6128C75.3505 29.2768 74.7925 29.1088 74.0485 29.1088C73.5325 29.1088 73.0225 29.1928 72.5185 29.3608C72.0265 29.5168 71.6065 29.7328 71.2585 30.0088L70.2505 28.0468C70.7785 27.6748 71.4085 27.3868 72.1405 27.1828C72.8845 26.9788 73.6465 26.8768 74.4265 26.8768ZM74.2105 34.9588C74.6905 34.9588 75.1165 34.8508 75.4885 34.6348C75.8605 34.4068 76.1245 34.0768 76.2805 33.6448V32.6548H74.3545C73.2025 32.6548 72.6265 33.0328 72.6265 33.7888C72.6265 34.1488 72.7645 34.4368 73.0405 34.6528C73.3285 34.8568 73.7185 34.9588 74.2105 34.9588ZM91.1577 27.0208V36.7048H88.3498V29.3248H84.3177V36.7048H81.5277V27.0208H91.1577ZM98.386 36.8488C97.366 36.8488 96.448 36.6388 95.632 36.2188C94.828 35.7868 94.198 35.1928 93.742 34.4368C93.286 33.6808 93.058 32.8228 93.058 31.8628C93.058 30.9028 93.286 30.0448 93.742 29.2888C94.198 28.5328 94.828 27.9448 95.632 27.5248C96.448 27.0928 97.366 26.8768 98.386 26.8768C99.406 26.8768 100.318 27.0928 101.122 27.5248C101.926 27.9448 102.556 28.5328 103.012 29.2888C103.468 30.0448 103.696 30.9028 103.696 31.8628C103.696 32.8228 103.468 33.6808 103.012 34.4368C102.556 35.1928 101.926 35.7868 101.122 36.2188C100.318 36.6388 99.406 36.8488 98.386 36.8488ZM98.386 34.5448C99.106 34.5448 99.694 34.3048 100.15 33.8248C100.618 33.3328 100.852 32.6788 100.852 31.8628C100.852 31.0468 100.618 30.3988 100.15 29.9188C99.694 29.4268 99.106 29.1808 98.386 29.1808C97.666 29.1808 97.072 29.4268 96.604 29.9188C96.136 30.3988 95.902 31.0468 95.902 31.8628C95.902 32.6788 96.136 33.3328 96.604 33.8248C97.072 34.3048 97.666 34.5448 98.386 34.5448ZM114.775 27.0208V36.7048H111.967V29.3248H108.907L108.817 31.0348C108.769 32.3068 108.649 33.3628 108.457 34.2028C108.265 35.0428 107.953 35.7028 107.521 36.1828C107.089 36.6628 106.489 36.9028 105.721 36.9028C105.313 36.9028 104.827 36.8308 104.263 36.6868L104.407 34.3828C104.599 34.4068 104.737 34.4188 104.821 34.4188C105.241 34.4188 105.553 34.2688 105.757 33.9688C105.973 33.6568 106.117 33.2668 106.189 32.7988C106.261 32.3188 106.315 31.6888 106.351 30.9088L106.495 27.0208H114.775ZM117.475 27.0208H120.265V30.8008H124.477V27.0208H127.285V36.7048H124.477V33.0868H120.265V36.7048H117.475V27.0208ZM129.973 27.0208H132.763V32.7808L137.479 27.0208H140.053V36.7048H137.263V30.9448L132.565 36.7048H129.973V27.0208ZM150.888 29.3248H147.612V36.7048H144.822V29.3248H141.546V27.0208H150.888V29.3248ZM157.623 30.1168C158.883 30.1288 159.849 30.4168 160.521 30.9808C161.193 31.5328 161.529 32.3188 161.529 33.3388C161.529 34.4068 161.151 35.2408 160.395 35.8408C159.651 36.4288 158.601 36.7228 157.245 36.7228L152.385 36.7048V27.0208H155.175V30.1168H157.623ZM156.993 34.7248C157.533 34.7368 157.947 34.6228 158.235 34.3828C158.523 34.1428 158.667 33.7828 158.667 33.3028C158.667 32.8348 158.523 32.4928 158.235 32.2768C157.959 32.0608 157.545 31.9468 156.993 31.9348L155.175 31.9168V34.7248H156.993ZM181.755 31.8268C181.755 33.3268 181.251 34.5148 180.243 35.3908C179.247 36.2548 177.819 36.7528 175.959 36.8848V40.1968H173.385V36.8848C171.525 36.7528 170.091 36.2608 169.083 35.4088C168.087 34.5448 167.589 33.3508 167.589 31.8268C167.589 30.3268 168.081 29.1628 169.065 28.3348C170.061 27.5068 171.501 27.0268 173.385 26.8948V23.3488H175.959V26.8948C177.819 27.0268 179.247 27.5128 180.243 28.3528C181.251 29.1928 181.755 30.3508 181.755 31.8268ZM170.307 31.8268C170.307 32.6908 170.553 33.3568 171.045 33.8248C171.537 34.2928 172.317 34.5868 173.385 34.7068V29.0728C172.317 29.1808 171.537 29.4628 171.045 29.9188C170.553 30.3628 170.307 30.9988 170.307 31.8268ZM175.959 34.7068C177.027 34.5868 177.807 34.2928 178.299 33.8248C178.803 33.3568 179.055 32.6908 179.055 31.8268C179.055 30.9988 178.803 30.3628 178.299 29.9188C177.807 29.4628 177.027 29.1808 175.959 29.0728V34.7068ZM188.193 36.8488C187.173 36.8488 186.255 36.6388 185.439 36.2188C184.635 35.7868 184.005 35.1928 183.549 34.4368C183.093 33.6808 182.865 32.8228 182.865 31.8628C182.865 30.9028 183.093 30.0448 183.549 29.2888C184.005 28.5328 184.635 27.9448 185.439 27.5248C186.255 27.0928 187.173 26.8768 188.193 26.8768C189.213 26.8768 190.125 27.0928 190.929 27.5248C191.733 27.9448 192.363 28.5328 192.819 29.2888C193.275 30.0448 193.503 30.9028 193.503 31.8628C193.503 32.8228 193.275 33.6808 192.819 34.4368C192.363 35.1928 191.733 35.7868 190.929 36.2188C190.125 36.6388 189.213 36.8488 188.193 36.8488ZM188.193 34.5448C188.913 34.5448 189.501 34.3048 189.957 33.8248C190.425 33.3328 190.659 32.6788 190.659 31.8628C190.659 31.0468 190.425 30.3988 189.957 29.9188C189.501 29.4268 188.913 29.1808 188.193 29.1808C187.473 29.1808 186.879 29.4268 186.411 29.9188C185.943 30.3988 185.709 31.0468 185.709 31.8628C185.709 32.6788 185.943 33.3328 186.411 33.8248C186.879 34.3048 187.473 34.5448 188.193 34.5448ZM201.14 26.8768C202.04 26.8768 202.856 27.0868 203.588 27.5068C204.332 27.9148 204.914 28.4968 205.334 29.2528C205.754 29.9968 205.964 30.8668 205.964 31.8628C205.964 32.8588 205.754 33.7348 205.334 34.4908C204.914 35.2348 204.332 35.8168 203.588 36.2368C202.856 36.6448 202.04 36.8488 201.14 36.8488C199.904 36.8488 198.932 36.4588 198.224 35.6788V40.1968H195.416V27.0208H198.098V28.1368C198.794 27.2968 199.808 26.8768 201.14 26.8768ZM200.654 34.5448C201.374 34.5448 201.962 34.3048 202.418 33.8248C202.886 33.3328 203.12 32.6788 203.12 31.8628C203.12 31.0468 202.886 30.3988 202.418 29.9188C201.962 29.4268 201.374 29.1808 200.654 29.1808C199.934 29.1808 199.34 29.4268 198.872 29.9188C198.416 30.3988 198.188 31.0468 198.188 31.8628C198.188 32.6788 198.416 33.3328 198.872 33.8248C199.34 34.3048 199.934 34.5448 200.654 34.5448ZM217.382 36.7048V30.9088L214.484 35.7688H213.296L210.47 30.8908V36.7048H207.932V27.0208H210.866L213.962 32.6188L217.256 27.0208H219.884L219.92 36.7048H217.382ZM232.312 27.0208L227.938 37.2988C227.494 38.4148 226.942 39.2008 226.282 39.6568C225.634 40.1128 224.848 40.3408 223.924 40.3408C223.42 40.3408 222.922 40.2628 222.43 40.1068C221.938 39.9508 221.536 39.7348 221.224 39.4588L222.25 37.4608C222.466 37.6528 222.712 37.8028 222.988 37.9108C223.276 38.0188 223.558 38.0728 223.834 38.0728C224.218 38.0728 224.53 37.9768 224.77 37.7848C225.01 37.6048 225.226 37.2988 225.418 36.8668L225.454 36.7768L221.26 27.0208H224.158L226.876 33.5908L229.612 27.0208H232.312Z" fill="white"/>
</g>
<defs>
<filter id="filter0_i_143_89" x="0" y="0" width="290" height="64" filterUnits="userSpaceOnUse" color-interpolation-filters="sRGB">
<feFlood flood-opacity="0" result="BackgroundImageFix"/>
<feBlend mode="normal" in="SourceGraphic" in2="BackgroundImageFix" result="shape"/>
<feColorMatrix in="SourceAlpha" type="matrix" values="0 0 0 0 0 0 0 0 0 0 0 0 0 0 0 0 0 0 127 0" result="hardAlpha"/>
<feOffset dy="4"/>
<feGaussianBlur stdDeviation="2"/>
<feComposite in2="hardAlpha" operator="arithmetic" k2="-1" k3="1"/>
<feColorMatrix type="matrix" values="0 0 0 0 0 0 0 0 0 0 0 0 0 0 0 0 0 0 0.25 0"/>
<feBlend mode="normal" in2="shape" result="effect1_innerShadow_143_89"/>
</filter>
</defs>
</svg>
