<?xml version="1.0" encoding="utf-8"?>
<!-- Generator: Adobe Illustrator 23.1.0, SVG Export Plug-In . SVG Version: 6.00 Build 0)  -->
<svg version="1.1" id="Capa_1" xmlns="http://www.w3.org/2000/svg" xmlns:xlink="http://www.w3.org/1999/xlink" x="0px" y="0px"
	 viewBox="0 0 512 512" style="enable-background:new 0 0 512 512;" xml:space="preserve">
<g>
	<g>
		<path d="M386.7,304.4c-35.6,0-64.5,29-64.5,64.5s29,64.5,64.5,64.5c35.6,0,64.5-29,64.5-64.5S422.3,304.4,386.7,304.4z
			 M386.7,401.2c-17.8,0-32.3-14.5-32.3-32.3c0-17.8,14.5-32.3,32.3-32.3c17.8,0,32.3,14.5,32.3,32.3
			C419,386.7,404.5,401.2,386.7,401.2z"/>
	</g>
</g>
<g>
	<g>
		<path d="M166.2,304.4c-35.6,0-64.5,29-64.5,64.5s29,64.5,64.5,64.5s64.5-29,64.5-64.5S201.8,304.4,166.2,304.4z M166.2,401.2
			c-17.8,0-32.3-14.5-32.3-32.3c0-17.8,14.5-32.3,32.3-32.3c17.8,0,32.3,14.5,32.3,32.3C198.5,386.7,184,401.2,166.2,401.2z"/>
	</g>
</g>
<g>
	<g>
		<path d="M430.1,119.7c-2.7-5.4-8.3-8.9-14.4-8.9h-85v32.3h75l43.9,87.4l28.8-14.5L430.1,119.7z"/>
	</g>
</g>
<g>
	<g>
		<rect x="216.2" y="353.3" width="122.1" height="32.3"/>
	</g>
</g>
<g>
	<g>
		<path d="M117.8,353.3H61.8c-8.9,0-16.1,7.2-16.1,16.1c0,8.9,7.2,16.1,16.1,16.1h55.9c8.9,0,16.1-7.2,16.1-16.1
			C133.9,360.6,126.7,353.3,117.8,353.3z"/>
	</g>
</g>
<g>
	<g>
		<path d="M508.6,254.7l-31.7-40.9c-3-3.9-7.8-6.2-12.7-6.2H346.9V94.7c0-8.9-7.2-16.1-16.1-16.1H61.8c-8.9,0-16.1,7.2-16.1,16.1
			s7.2,16.1,16.1,16.1h252.8v112.9c0,8.9,7.2,16.1,16.1,16.1h125.5l23.5,30.3v83.2h-44.6c-8.9,0-16.1,7.2-16.1,16.1
			c0,8.9,7.2,16.1,16.1,16.1h60.8c8.9,0,16.1-7.2,16.1-16.1V264.6C512,261,510.8,257.5,508.6,254.7z"/>
	</g>
</g>
<g>
	<g>
		<g>
			<path d="M45.7,119.2v223.5c0,14.5,7.2,26.2,16.1,26.2S78,357.2,78,342.7V119.2C78,104.7,70.8,93,61.8,93S45.7,104.7,45.7,119.2z"
				/>
		</g>
		<rect x="45.7" y="93" width="32" height="24.7"/>
	</g>
	<rect x="45.7" y="342.7" width="32" height="26.2"/>
</g>
</svg>
