<?xml version="1.0" encoding="UTF-8" standalone="no"?>
<svg
   xmlns:dc="http://purl.org/dc/elements/1.1/"
   xmlns:cc="http://creativecommons.org/ns#"
   xmlns:rdf="http://www.w3.org/1999/02/22-rdf-syntax-ns#"
   xmlns:svg="http://www.w3.org/2000/svg"
   xmlns="http://www.w3.org/2000/svg"
   viewBox="0 0 426.78799 426.78799"
   height="426.78799"
   width="426.78799"
   xml:space="preserve"
   id="svg2"
   version="1.1"><metadata
     id="metadata8"><rdf:RDF><cc:Work
         rdf:about=""><dc:format>image/svg+xml</dc:format><dc:type
           rdf:resource="http://purl.org/dc/dcmitype/StillImage" /></cc:Work></rdf:RDF></metadata><defs
     id="defs6"><clipPath
       id="clipPath18"
       clipPathUnits="userSpaceOnUse"><path
         id="path16"
         d="M 0,320.091 H 320.091 V 0 H 0 Z" /></clipPath></defs><g
     transform="matrix(1.3333333,0,0,-1.3333333,0,426.788)"
     id="g10"><g
       id="g12"><g
         clip-path="url(#clipPath18)"
         id="g14"><g
           transform="translate(317.0323,160.0451)"
           id="g20"><path
             id="path22"
             style="fill:#ffffff;fill-opacity:1;fill-rule:nonzero;stroke:none"
             d="m 0,0 c 0,-86.701 -70.286,-156.986 -156.987,-156.986 -86.701,0 -156.987,70.285 -156.987,156.986 0,86.702 70.286,156.987 156.987,156.987 C -70.286,156.987 0,86.702 0,0" /></g><g
           transform="translate(160.0451,320.091)"
           id="g24"><path
             id="path26"
             style="fill:#1cab9e;fill-opacity:1;fill-rule:nonzero;stroke:none"
             d="m 0,0 c -88.391,0 -160.045,-71.654 -160.045,-160.045 0,-88.391 71.654,-160.046 160.045,-160.046 88.391,0 160.046,71.655 160.046,160.046 C 160.046,-71.654 88.391,0 0,0 m 0,-8.328 c 40.525,0 78.625,-15.781 107.28,-44.437 28.657,-28.656 44.438,-66.755 44.438,-107.28 0,-40.525 -15.781,-78.625 -44.438,-107.28 C 78.625,-295.981 40.525,-311.763 0,-311.763 c -40.524,0 -78.624,15.782 -107.28,44.438 -28.656,28.655 -44.437,66.755 -44.437,107.28 0,40.525 15.781,78.624 44.437,107.28 28.656,28.656 66.756,44.437 107.28,44.437" /></g><g
           transform="translate(160.1652,228.3488)"
           id="g28"><path
             id="path30"
             style="fill:#d53416;fill-opacity:1;fill-rule:nonzero;stroke:none"
             d="m 0,0 c 8.094,10.975 17.61,20.059 30.382,24.6 24.902,8.855 48.56,6.394 69.452,-10.552 21.106,-17.12 27.781,-40.588 24.541,-67.229 -4.322,-35.55 -23.472,-64.963 -46.865,-89.357 -21.2,-22.108 -44.781,-41.718 -72.429,-53.809 -2.349,-1.46 -6.814,-2.19 -8.866,-0.891 -26.149,9.262 -69.938,45.849 -95.536,80.179 -16.039,21.51 -26.242,47.395 -26.067,75.429 0.198,31.419 17.95,57.854 45.241,67.249 29.675,10.217 58.971,1.315 78.204,-23.75 C -1.525,1.324 -0.95,0.905 0,0" /></g><g
           transform="translate(209.505,157.7814)"
           id="g32"><path
             id="path34"
             style="fill:#ffffff;fill-opacity:1;fill-rule:nonzero;stroke:none"
             d="M 0,0 C -3.775,0 -6.874,1.521 -6.836,4.789 -6.796,8.162 -3.775,9.578 0,9.578 3.776,9.578 6.931,7.846 6.837,4.789 6.845,1.521 3.776,0 0,0 m -0.007,28.627 c 3.475,0 6.378,-1.68 6.291,-4.644 0.008,-3.168 -2.816,-4.643 -6.291,-4.643 -3.474,0 -6.326,1.475 -6.291,4.643 0.036,3.271 2.817,4.644 6.291,4.644 M 11.938,14.914 c 2.426,2.215 3.9,5.276 3.907,9.069 0.012,8.211 -7.134,13.174 -15.933,13.174 -8.799,0 -15.953,-4.963 -15.933,-13.174 0.01,-3.756 1.494,-6.821 3.935,-9.047 -3.281,-2.342 -5.325,-5.802 -5.313,-10.147 0.022,-8.508 7.75,-13.587 17.311,-13.587 9.562,0 17.297,4.967 17.312,13.587 0.007,4.331 -2.024,7.783 -5.286,10.125" /></g><g
           transform="translate(247.5412,158.8488)"
           id="g36"><path
             id="path38"
             style="fill:#ffffff;fill-opacity:1;fill-rule:nonzero;stroke:none"
             d="m 0,0 c -5.354,0.076 -7.603,5.931 -7.603,13.247 0,7.316 2.75,13.43 7.603,13.247 C 5.186,26.51 7.602,20.563 7.602,13.247 7.602,5.931 5.186,-0.074 0,0 M 0,35.8 C -11.683,35.819 -18.744,25.65 -18.744,13.132 -18.744,0.612 -11.683,-9.565 0,-9.536 11.735,-9.506 18.743,0.612 18.743,13.132 18.743,25.65 11.891,35.78 0,35.8" /></g><g
           transform="translate(116.3986,180.3791)"
           id="g40"><path
             id="path42"
             style="fill:#ffffff;fill-opacity:1;fill-rule:nonzero;stroke:none"
             d="m 0,0 c 0,4.48 -1.578,7.968 -4.734,10.463 -3.158,2.495 -7.359,3.742 -12.603,3.742 -4.938,0 -9.024,-1.158 -12.258,-3.475 -3.233,-2.316 -4.849,-5.231 -4.849,-8.745 0,-3.564 2.265,-5.346 6.797,-5.346 h 2.52 v 1.527 c 0,1.986 0.598,3.667 1.795,5.041 1.196,1.375 2.864,2.063 5.003,2.063 2.139,0 3.818,-0.561 5.04,-1.681 1.223,-1.119 1.834,-2.749 1.834,-4.888 0,-6.467 -8.698,-13.663 -23.158,-20.231 l 0.016,-8.715 h 34.445 v 4.073 c 0,2.897 -2.348,5.245 -5.244,5.245 H -15.427 C -5.142,-14.919 0,-7.943 0,0" /></g><g
           transform="translate(138.1535,158.8488)"
           id="g44"><path
             id="path46"
             style="fill:#ffffff;fill-opacity:1;fill-rule:nonzero;stroke:none"
             d="m 0,0 c -5.354,0.076 -7.603,5.931 -7.603,13.247 0,7.316 2.751,13.43 7.603,13.247 C 5.187,26.51 7.603,20.563 7.603,13.247 7.603,5.931 5.187,-0.074 0,0 M 0,35.8 C -11.683,35.819 -18.743,25.65 -18.743,13.132 -18.743,0.612 -11.683,-9.565 0,-9.536 11.735,-9.506 18.743,0.612 18.743,13.132 18.743,25.65 11.891,35.78 0,35.8" /></g><g
           transform="translate(65.3722,190.5304)"
           id="g48"><path
             id="path50"
             style="fill:#ffffff;fill-opacity:1;fill-rule:nonzero;stroke:none"
             d="M 0,0 V -1.027 C 0,-1.04 -0.002,-1.051 -0.002,-1.063 v -0.764 c -0.734,-3.756 -13.49,-7.52 -13.49,-7.52 1.338,-3.513 2.034,-10.123 2.034,-10.123 4.583,1.274 8.401,2.852 11.456,4.736 v -25.662 h 11.228 v 38.01 5.982 10e-4 H 3.597 C 1.61,3.597 0,1.986 0,0" /></g><g
           transform="translate(176.7667,65.6164)"
           id="g52"><path
             id="path54"
             style="fill:#ffffff;fill-opacity:1;fill-rule:nonzero;stroke:none"
             d="m 0,0 c -0.107,0 -0.215,0.009 -0.322,0.026 -1.014,0.158 -1.761,1.031 -1.761,2.057 v 122.566 l -15.961,-69.18 c -0.198,-0.861 -0.917,-1.501 -1.792,-1.602 -0.874,-0.1 -1.72,0.362 -2.107,1.155 l -9.227,18.894 -3.726,-8.654 c -0.328,-0.764 -1.08,-1.259 -1.912,-1.259 h -72.112 c -1.149,0 -2.082,0.933 -2.082,2.082 0,1.15 0.933,2.082 2.082,2.082 h 70.742 l 4.976,11.562 c 0.321,0.748 1.049,1.239 1.862,1.258 0.814,0.044 1.563,-0.436 1.92,-1.167 l 8.64,-17.689 18.75,81.272 c 0.238,1.031 1.197,1.726 2.264,1.601 1.052,-0.119 1.847,-1.01 1.847,-2.068 V 15.407 l 16.432,51.297 c 0.275,0.862 1.077,1.447 1.982,1.447 h 10e-4 L 81.397,68.13 c 1.15,0 2.082,-0.934 2.082,-2.083 0,-1.151 -0.933,-2.081 -2.084,-2.081 v 0 L 22.014,63.986 1.981,1.447 C 1.701,0.575 0.893,0 0,0" /></g></g></g></g></svg>