<?xml version="1.0" standalone="no"?>
<!DOCTYPE svg PUBLIC "-//W3C//DTD SVG 1.1//EN" "http://www.w3.org/Graphics/SVG/1.1/DTD/svg11.dtd" >
<svg xmlns="http://www.w3.org/2000/svg">
<metadata>Generated by IcoMoon</metadata>
<defs>
<font id="icomoon" horiz-adv-x="1024">
<font-face units-per-em="1024" ascent="870.850439882698" descent="-153.14956011730206" />
<missing-glyph horiz-adv-x="1024" />
<glyph unicode="&#x20;" d="" />
<glyph unicode="&#xe800;" glyph-name="heart" d="M513.502-108.124q-14.378 0-25.675 10.27l-357.398 345.074q-5.135 5.135-15.405 15.405t-31.837 37.999-39.026 55.458-30.81 68.809-13.351 79.079q0 126.321 72.917 197.185t201.293 71.89q34.918 0 71.89-12.324t68.809-33.891 55.458-39.026 43.134-39.026q20.54 20.54 43.134 39.026t55.458 39.026 68.809 33.891 71.89 12.324q128.375 0 201.293-71.89t72.917-197.185q0-126.321-131.456-257.778l-356.371-344.047q-10.27-10.27-25.675-10.27z" />
<glyph unicode="&#xe801;" glyph-name="heart-empty" d="M954.089 503.972q0 47.242-12.324 82.16t-31.837 56.485-47.242 33.891-53.404 18.486-56.485 4.108-63.674-14.378-63.674-36.972-49.296-41.080-34.918-34.918q-10.27-13.351-27.729-13.351t-27.729 13.351q-14.378 15.405-34.918 34.918t-49.296 41.080-63.674 36.972-63.674 14.378-56.485-4.108-53.404-18.486-47.242-33.891-31.837-56.485-12.324-82.16q0-95.511 107.835-203.347l332.75-320.426 332.75 320.426q107.835 107.835 107.835 203.347zM1027.006 503.972q0-126.321-131.456-257.778l-356.371-344.047q-10.27-10.27-25.675-10.27t-25.675 10.27l-357.398 345.074q-5.135 5.135-15.405 15.405t-31.837 37.999-39.026 55.458-30.81 68.809-13.351 79.079q0 126.321 72.917 197.185t201.293 71.89q34.918 0 71.89-12.324t68.809-33.891 55.458-39.026 43.134-39.026q20.54 20.54 43.134 39.026t55.458 39.026 68.809 33.891 71.89 12.324q128.375 0 201.293-71.89t72.917-197.185z" />
<glyph unicode="&#xe802;" glyph-name="truck" d="M366.641 38.738q0 29.783-21.567 52.377t-51.35 21.567-51.35-21.567-22.594-52.377 22.594-51.35 51.35-21.567 51.35 21.567 21.567 51.35zM146.861 332.462h219.779v146.861h-90.376q-7.189 0-12.324-5.135l-111.943-111.943q-5.135-5.135-5.135-12.324v-17.459zM880.145 38.738q0 29.783-21.567 52.377t-51.35 21.567-51.35-21.567-22.594-52.377 22.594-51.35 51.35-21.567 51.35 21.567 21.567 51.35zM1027.006 662.131v-586.421q0-8.216-2.054-15.405t-8.216-10.27-9.243-6.162-13.351-4.108-13.351-1.027-14.378 0-12.324 0q0-60.593-43.134-103.727t-103.727-43.134-103.727 43.134-43.134 103.727h-219.779q0-60.593-43.134-103.727t-103.727-43.134-103.727 43.134-43.134 103.727h-36.972q-1.027 0-12.324 0t-15.405 0-12.324 1.027-13.351 4.108-9.243 6.162-8.216 10.27-2.054 15.405q0 15.405 10.27 25.675t25.675 11.297v182.807q0 5.135 0 20.54t0 21.567 2.054 19.513 3.081 21.567 8.216 17.459 13.351 17.459l112.97 112.97q11.297 11.297 28.756 18.486t33.891 7.189h91.403v109.889q0 15.405 11.297 26.702t25.675 10.27h586.421q15.405 0 25.675-10.27t11.297-26.702z" />
<glyph unicode="&#xe803;" glyph-name="down-open-big" horiz-adv-x="890" d="M64.701 558.404l379.992-365.614 382.046 365.614q22.594 26.702 49.296 0 26.702-22.594 0-49.296l-406.694-402.586q-22.594-22.594-49.296 0l-406.694 402.586q-26.702 26.702 0 49.296 24.648 24.648 51.35 0z" />
<glyph unicode="&#xe804;" glyph-name="left-open-big" horiz-adv-x="476" d="M464.206-47.53q26.702-26.702 0-49.296-26.702-26.702-49.296 0l-402.586 404.64q-24.648 24.648 0 51.35l402.586 404.64q22.594 26.702 49.296 0 26.702-22.594 0-49.296l-367.668-382.046z" />
<glyph unicode="&#xe805;" glyph-name="right-open-big" horiz-adv-x="476" d="M13.351-47.53l367.668 379.992-367.668 382.046q-26.702 26.702 0 49.296 26.702 26.702 49.296 0l402.586-404.64q24.648-26.702 0-51.35l-402.586-404.64q-22.594-26.702-49.296 0-26.702 22.594 0 49.296z" />
<glyph unicode="&#xe806;" glyph-name="up-open-big" horiz-adv-x="888" d="M825.713 106.52l-382.046 367.668-379.992-367.668q-26.702-22.594-51.35 0-24.648 24.648 0 51.35l406.694 400.532q26.702 26.702 49.296 0l406.694-400.532q24.648-26.702 0-51.35-26.702-22.594-49.296 0z" />
<glyph unicode="&#xe900;" glyph-name="loyalty" d="M850.881-112.548c-24.467-5.948-48.214-12.339-72.325-16.744-17.261-3.154-34.984-3.941-52.541-5.251-19.312-1.44-38.74-3.874-57.991-3.015-33.056 1.473-66.036 4.923-99.007 8.002-30.41 2.84-59.824 10.532-88.805 19.861-28.613 9.212-56.067 21.33-79.177 40.739-18.204 15.287-32.431 33.975-33.256 59.495-0.641 19.739-1.132 39.485-1.664 59.229-0.079 2.959-0.011 5.923-0.011 8.68-13.75 0.839-26.814 1.346-39.823 2.492-22.387 1.973-44.747 4.262-67.101 6.565-31.67 3.262-62.297 11.224-92.256 21.636-30.571 10.623-59.677 24.306-82.852 47.674-15.995 16.129-24.542 35.416-24.493 58.936 0.335 157.633 0.15 315.266 0.229 472.899 0.008 16.938 6.791 31.564 17.135 44.582 20.3 25.548 48.068 40.45 77.823 51.102 26.171 9.367 53.168 16.717 80.216 23.222 16.652 4.004 34.035 5.439 51.188 6.795 28.535 2.253 57.16 4.997 85.725 4.767 27.087-0.217 54.141-4.088 81.222-6.171 35.427-2.727 69.898-10.695 103.316-21.971 32.392-10.93 63.523-25.292 87.409-51.294 13.895-15.126 21.793-32.957 21.835-53.524 0.198-97.726 0.086-195.455 0.084-293.181 0-2.171 0-4.342 0-7.017 2.168-0.17 4.002-0.457 5.833-0.435 36.292 0.435 72.279-2.51 108.169-8.105 29.032-4.523 57.645-10.487 85.356-20.174 30.012-10.488 58.857-23.45 81.652-46.548 10.515-10.657 17.079-23.612 23.016-37.646 4.56-10.78 3.981-20.698 4.025-31.006 0.298-70.672-0.388-141.351 0.385-212.015 0.389-35.564-13.321-63.055-41.412-83.927-23.176-17.22-49.629-27.846-76.56-37.44-1.499-0.536-3.185-0.549-5.347-1.208zM801.338 113.776c-0.964-0.506-1.886-1.345-2.898-1.472-13.91-1.74-27.817-3.489-41.751-5.018-21.242-2.328-42.455-5.369-63.766-6.433-16.906-0.845-34.013 0.006-50.9 1.551-29.541 2.703-58.93 7.074-88.476 9.681-23.351 2.062-45.535 8.71-67.693 15.333-15.319 4.577-29.974 11.372-45.363 17.346-3.441-3.553-7.146-7.254-10.707-11.084-8.502-9.139-10.66-20.477-3.573-29.002 7.309-8.796 15.894-16.741 24.828-23.929 15.913-12.798 35.383-18.87 54.411-24.706 42.269-12.962 85.973-19.063 129.979-21.419 24.876-1.331 50.016-0.284 74.893 1.593 27.113 2.046 54.253 5.199 81.036 9.854 33.646 5.846 66.808 14.256 96.125 32.969 8.976 5.73 17.673 12.198 25.417 19.478 11.117 10.451 12.456 21.071 4.446 32.543-3.691 5.284-9.353 9.191-13.068 12.719-21.090-7.292-41.602-14.996-62.512-21.39-12.663-3.873-25.947-5.722-40.425-8.609zM383.42 464.849c7.319 0.581 14.649 1.043 21.954 1.764 15.875 1.567 31.77 2.998 47.596 4.964 30.703 3.815 60.818 10.298 89.749 21.508 20.503 7.946 39.195 19.151 55.252 34.134 11.547 10.779 12.987 21.99 4.781 34.151-3.585 5.313-9.463 9.079-12.907 12.258-27.35-8.611-54.171-18.462-81.74-25.294-21.805-5.402-44.465-7.649-66.864-10.293-24.224-2.858-48.548-5.666-72.893-6.396-19.829-0.598-39.785 1.504-59.624 3.131-20.999 1.722-42.004 3.756-62.872 6.615-35.124 4.816-68.941 14.611-101.512 28.677-4.424 1.911-9.613 5.582-13.48 4.604-12.757-3.226-20.462-20.418-16.765-33.21 4.434-15.351 17.040-23.806 28.857-31.369 13.597-8.697 29.035-15.37 44.542-20.037 23.112-6.954 46.897-11.79 70.553-16.777 32.025-6.756 64.547-8.717 97.23-8.4 8.833 0.085 17.666-0.015 28.141-0.034zM542.915 438.457c-21.259-4.928-42.404-10.431-63.814-14.579-14.266-2.765-28.899-3.65-43.379-5.278-15.034-1.693-30.049-4.269-45.124-4.693-35.536-0.994-71.046-0.225-106.38 4.685-15.768 2.191-32.020 1.874-47.449 5.36-36.055 8.148-72.232 16.414-104.779 34.021-2.61-1.752-5.010-3.008-6.981-4.752-5.702-5.041-12.154-10.497-10.261-18.891 4.547-20.18 18.261-34.089 35.371-43.83 14.166-8.064 29.386-14.969 44.953-19.71 21.052-6.412 42.668-11.766 64.427-14.862 32.625-4.643 65.526-7.977 98.423-9.816 19.476-1.088 39.249 1.028 58.751 3.044 24.32 2.513 48.554 6.022 72.719 9.797 37.908 5.923 72.969 19.22 104.499 41.502 18.763 13.261 23.356 29.32 12.124 45.546-1.545 2.229-4.029 3.797-5.65 5.988-3.97 5.368-8.050 5.155-14.029 2.581-13.755-5.926-27.998-10.721-43.421-16.112zM648.521-18.573c-8.975 0.53-17.979 0.76-26.915 1.646-20.457 2.027-40.941 3.941-61.308 6.686-35.754 4.819-70.608 13.236-103.847 27.679-9.929 4.313-20.506 11.806-28.486-3.104-0.249-0.465-0.793-0.767-1.142-1.189-10.229-12.377-6.734-25.854 2.097-34.536 17.858-17.556 39.928-27.228 62.824-35.514 44.47-16.094 90.806-23.505 137.688-26.068 29.562-1.618 59.341 0.63 89.019 1.291 27.85 0.623 55.098 5.441 82.25 11.43 35.774 7.891 70.489 18.403 100.541 40.104 9.178 6.626 18.754 14.054 18.27 28.010-0.378 10.909-8.138 16.45-14.347 23.417-2.89 3.242-5.168 3.337-9.118 1.665-13.88-5.886-27.754-11.985-42.101-16.512-27.819-8.781-56.206-15.362-85.312-18.435-20.175-2.13-40.283-5.258-60.509-6.404-19.26-1.091-38.633-0.19-59.605-0.164zM307.123 301.121c-25.913 3.301-51.946 5.88-77.71 10.096-29.594 4.843-58.135 13.813-85.426 26.384-10.34 4.763-12.374 4.956-19.302-3.849-11.636-14.785-13.37-20.93-4.993-33.221 5.925-8.69 13.993-16.727 22.783-22.494 19.341-12.685 40.563-21.931 63.335-26.788 24.787-5.285 49.629-10.376 74.584-14.789 11.698-2.070 23.697-2.62 35.592-3.378 16.608-1.061 33.244-1.677 48.278-2.403 4.133 13.706 6.103 26.477 11.772 37.308 5.76 11.003 15.168 20.095 21.75 28.463-28.126 1.474-58.615 3.075-90.663 4.677zM217.037 129.4c19.761-3.572 39.482-7.41 59.304-10.613 10.65-1.722 21.46-2.584 32.227-3.429 18.926-1.488 37.879-2.67 56.966-3.989 0 22.702 0 44.009 0 64.69-6.552 0.839-12.441 1.873-18.375 2.302-24.964 1.809-50.006 2.817-74.894 5.336-18.36 1.86-36.732 4.703-54.735 8.724-27.633 6.172-54.913 13.839-80.371 26.796-1.977 1.006-5.657 1.578-6.963 0.474-5.040-4.25-10.399-8.663-13.807-14.155-3.554-5.726-6.858-13.089-2.197-19.627 4.921-6.907 10.423-13.874 17.077-18.988 25.048-19.258 54.543-28.779 85.774-37.523z" />
<glyph unicode="&#xe901;" glyph-name="home" d="M1024 305.556l-512 397.426-512-397.428v162.038l512 397.426 512-397.428zM896 320v-384h-256v256h-256v-256h-256v384l384 288z" />
<glyph unicode="&#xe926;" glyph-name="file-text2" d="M917.806 666.924c-22.212 30.292-53.174 65.7-87.178 99.704s-69.412 64.964-99.704 87.178c-51.574 37.82-76.592 42.194-90.924 42.194h-496c-44.112 0-80-35.888-80-80v-864c0-44.112 35.888-80 80-80h736c44.112 0 80 35.888 80 80v624c0 14.332-4.372 39.35-42.194 90.924zM785.374 721.374c30.7-30.7 54.8-58.398 72.58-81.374h-153.954v153.946c22.984-17.78 50.678-41.878 81.374-72.572zM896-48c0-8.672-7.328-16-16-16h-736c-8.672 0-16 7.328-16 16v864c0 8.672 7.328 16 16 16 0 0 495.956 0.002 496 0v-224c0-17.672 14.326-32 32-32h224v-624zM736 64h-448c-17.672 0-32 14.326-32 32s14.328 32 32 32h448c17.674 0 32-14.326 32-32s-14.326-32-32-32zM736 192h-448c-17.672 0-32 14.326-32 32s14.328 32 32 32h448c17.674 0 32-14.326 32-32s-14.326-32-32-32zM736 320h-448c-17.672 0-32 14.326-32 32s14.328 32 32 32h448c17.674 0 32-14.326 32-32s-14.326-32-32-32z" />
<glyph unicode="&#xe92e;" glyph-name="stack" d="M1024 576l-512 256-512-256 512-256 512 256zM512 747.030l342.058-171.030-342.058-171.030-342.058 171.030 342.058 171.030zM921.444 435.278l102.556-51.278-512-256-512 256 102.556 51.278 409.444-204.722zM921.444 243.278l102.556-51.278-512-256-512 256 102.556 51.278 409.444-204.722z" />
<glyph unicode="&#xe93a;" glyph-name="cart" d="M384-32c0-53.019-42.981-96-96-96s-96 42.981-96 96c0 53.019 42.981 96 96 96s96-42.981 96-96zM1024-32c0-53.019-42.981-96-96-96s-96 42.981-96 96c0 53.019 42.981 96 96 96s96-42.981 96-96zM1024 384v384h-768c0 35.346-28.654 64-64 64h-192v-64h128l48.074-412.054c-29.294-23.458-48.074-59.5-48.074-99.946 0-70.696 57.308-128 128-128h768v64h-768c-35.346 0-64 28.654-64 64 0 0.218 0.014 0.436 0.016 0.656l831.984 127.344z" />
<glyph unicode="&#xe93f;" glyph-name="credit-card" d="M928 768h-832c-52.8 0-96-43.2-96-96v-576c0-52.8 43.2-96 96-96h832c52.8 0 96 43.2 96 96v576c0 52.8-43.2 96-96 96zM96 704h832c17.346 0 32-14.654 32-32v-96h-896v96c0 17.346 14.654 32 32 32zM928 64h-832c-17.346 0-32 14.654-32 32v288h896v-288c0-17.346-14.654-32-32-32zM128 256h64v-128h-64zM256 256h64v-128h-64zM384 256h64v-128h-64z" />
<glyph unicode="&#xe947;" glyph-name="location" d="M512 896c-176.732 0-320-143.268-320-320 0-320 320-704 320-704s320 384 320 704c0 176.732-143.27 320-320 320zM512 384c-106.040 0-192 85.96-192 192s85.96 192 192 192 192-85.96 192-192-85.96-192-192-192z" />
<glyph unicode="&#xe98f;" glyph-name="lock" d="M592 448h-16v192c0 105.87-86.13 192-192 192h-128c-105.87 0-192-86.13-192-192v-192h-16c-26.4 0-48-21.6-48-48v-480c0-26.4 21.6-48 48-48h544c26.4 0 48 21.6 48 48v480c0 26.4-21.6 48-48 48zM192 640c0 35.29 28.71 64 64 64h128c35.29 0 64-28.71 64-64v-192h-256v192z" />
<glyph unicode="&#xe99f;" glyph-name="gift" d="M773.025 563.419c18.162 12.906 35.582 27.27 51.544 43.232 33.468 33.468 55.855 74.646 63.035 115.948 7.874 45.274-3.68 87.31-31.692 115.326-22.344 22.342-52.612 34.152-87.534 34.152-49.73 0-102.122-23.87-143.74-65.49-66.606-66.606-105.432-158.548-126.322-224.16-15.47 65.93-46.296 154.946-106.226 214.878-32.156 32.154-73.257 48.665-112.064 48.665-31.716 0-61.9-11.026-84.424-33.552-50.084-50.086-43.316-138.056 15.116-196.488 20.832-20.832 45.186-38.136 70.858-52.514h-217.448v-256.5h64.126v-448.876h769.502v448.878h64.126v256.5h-188.852zM675.645 755.576c27.778 27.778 62.444 44.36 92.731 44.36 10.72 0 25.758-2.258 36.522-13.024 26.080-26.078 11.434-86.476-31.342-129.25-44.032-44.032-103.262-74.314-154.734-94.244h-50.772c18.604 57.66 52.16 136.723 107.594 192.157zM234.392 722.84c-0.704 9.138-0.050 26.3 12.22 38.57 10.264 10.264 23.834 12.42 33.414 12.42v0c21.3 0 43.553-10.036 61.052-27.534 33.938-33.938 61.886-87.944 80.826-156.181 0.51-1.844 1.010-3.678 1.498-5.496-1.82 0.486-3.654 0.986-5.496 1.498-68.238 18.94-122.24 46.89-156.179 80.828-15.858 15.856-25.82 36.23-27.334 55.896zM448.876-77.833h-256.5v416.814h256.5v-416.814zM448.876 371.044h-320.626v128.25h320.626v-128.25zM833.627-77.833h-256.5v416.814h256.5v-416.814zM897.753 371.044h-320.626v128.25h320.626v-128.25z" />
<glyph unicode="&#xea0f;" glyph-name="cross" d="M1015.654 66.561c-0.004 0.004-0.008 0.008-0.012 0.010l-310.948 310.954 310.948 310.954c0.004 0.004 0.008 0.006 0.012 0.010 3.347 3.349 5.768 7.261 7.319 11.427 4.25 11.387 1.826 24.706-7.331 33.863l-146.889 146.889c-9.157 9.155-22.472 11.577-33.861 7.327-4.164-1.552-8.078-3.972-11.429-7.317 0-0.004-0.004-0.006-0.008-0.010l-310.952-310.956-310.952 310.954c-0.004 0.004-0.006 0.006-0.010 0.010-3.349 3.345-7.261 5.766-11.425 7.317-11.391 4.252-24.706 1.828-33.863-7.327l-146.891-146.891c-9.157-9.157-11.579-22.474-7.329-33.861 1.554-4.164 3.974-8.080 7.319-11.427 0.004-0.002 0.006-0.006 0.010-0.010l310.954-310.952-310.954-310.956c-0.002-0.004-0.006-0.006-0.008-0.010-3.345-3.349-5.766-7.261-7.321-11.425-4.252-11.387-1.828-24.706 7.329-33.863l146.891-146.889c9.159-9.157 22.474-11.579 33.863-7.329 4.164 1.554 8.078 3.974 11.427 7.319 0.002 0.004 0.006 0.006 0.010 0.010l310.952 310.954 310.952-310.954c0.004-0.002 0.008-0.006 0.012-0.008 3.351-3.347 7.261-5.768 11.425-7.321 11.389-4.25 24.708-1.828 33.861 7.329l146.889 146.891c9.157 9.157 11.581 22.476 7.331 33.863-1.554 4.164-3.974 8.076-7.321 11.425z" />
<glyph unicode="&#xea2d;" glyph-name="loop" d="M128 576h640v-192l256 256-256 256v-192h-768v-384h128zM896 192h-640v192l-256-256 256-256v192h768v384h-128z" />
<glyph unicode="&#xf0c9;" glyph-name="menu" horiz-adv-x="881" d="M880.145 75.71v-72.917q0-15.405-10.27-25.675t-26.702-11.297h-806.2q-15.405 0-25.675 11.297t-11.297 25.675v72.917q0 15.405 11.297 25.675t25.675 11.297h806.2q15.405 0 26.702-11.297t10.27-25.675zM880.145 369.434v-73.944q0-14.378-10.27-25.675t-26.702-10.27h-806.2q-15.405 0-25.675 10.27t-11.297 25.675v73.944q0 14.378 11.297 25.675t25.675 10.27h806.2q15.405 0 26.702-10.27t10.27-25.675zM880.145 662.131v-72.917q0-14.378-10.27-25.675t-26.702-11.297h-806.2q-15.405 0-25.675 11.297t-11.297 25.675v72.917q0 15.405 11.297 26.702t25.675 10.27h806.2q15.405 0 26.702-10.27t10.27-26.702z" />
<glyph unicode="&#xf0f8;" glyph-name="hospital" horiz-adv-x="807" d="M219.779 94.196v-36.972q0-7.189-5.135-12.324t-13.351-6.162h-35.945q-7.189 0-13.351 6.162t-5.135 12.324v36.972q0 7.189 5.135 12.324t13.351 6.162h35.945q8.216 0 13.351-6.162t5.135-12.324zM219.779 241.059v-36.972q0-7.189-5.135-13.351t-13.351-5.135h-35.945q-7.189 0-13.351 5.135t-5.135 13.351v36.972q0 7.189 5.135 12.324t13.351 6.162h35.945q8.216 0 13.351-6.162t5.135-12.324zM366.641 241.059v-36.972q0-7.189-5.135-13.351t-13.351-5.135h-35.945q-8.216 0-13.351 5.135t-5.135 13.351v36.972q0 7.189 5.135 12.324t13.351 6.162h35.945q8.216 0 13.351-6.162t5.135-12.324zM219.779 387.92v-36.972q0-7.189-5.135-13.351t-13.351-5.135h-35.945q-7.189 0-13.351 5.135t-5.135 13.351v36.972q0 7.189 5.135 12.324t13.351 5.135h35.945q8.216 0 13.351-5.135t5.135-12.324zM660.365 94.196v-36.972q0-7.189-5.135-12.324t-13.351-6.162h-36.972q-7.189 0-12.324 6.162t-6.162 12.324v36.972q0 7.189 6.162 12.324t12.324 6.162h36.972q7.189 0 13.351-6.162t5.135-12.324zM513.502 241.059v-36.972q0-7.189-5.135-13.351t-13.351-5.135h-36.972q-7.189 0-12.324 5.135t-5.135 13.351v36.972q0 7.189 5.135 12.324t12.324 6.162h36.972q7.189 0 13.351-6.162t5.135-12.324zM366.641 387.92v-36.972q0-7.189-5.135-13.351t-13.351-5.135h-35.945q-8.216 0-13.351 5.135t-5.135 13.351v36.972q0 7.189 5.135 12.324t13.351 5.135h35.945q8.216 0 13.351-5.135t5.135-12.324zM660.365 241.059v-36.972q0-7.189-5.135-13.351t-13.351-5.135h-36.972q-7.189 0-12.324 5.135t-6.162 13.351v36.972q0 7.189 6.162 12.324t12.324 6.162h36.972q7.189 0 13.351-6.162t5.135-12.324zM513.502 387.92v-36.972q0-7.189-5.135-13.351t-13.351-5.135h-36.972q-7.189 0-12.324 5.135t-5.135 13.351v36.972q0 7.189 5.135 12.324t12.324 5.135h36.972q7.189 0 13.351-5.135t5.135-12.324zM660.365 387.92v-36.972q0-7.189-5.135-13.351t-13.351-5.135h-36.972q-7.189 0-12.324 5.135t-6.162 13.351v36.972q0 7.189 6.162 12.324t12.324 5.135h36.972q7.189 0 13.351-5.135t5.135-12.324zM513.502-108.124h219.779v660.365h-146.861v-18.486q0-22.594-15.405-37.999t-39.026-16.432h-256.751q-22.594 0-39.026 16.432t-16.432 37.999v18.486h-146.861v-660.365h220.806v128.375q0 8.216 5.135 13.351t13.351 5.135h182.807q7.189 0 13.351-5.135t5.135-13.351v-128.375zM513.502 570.728v183.834q0 7.189-5.135 12.324t-13.351 6.162h-36.972q-7.189 0-12.324-6.162t-5.135-12.324v-55.458h-73.944v55.458q0 7.189-5.135 12.324t-13.351 6.162h-35.945q-8.216 0-13.351-6.162t-5.135-12.324v-183.834q0-7.189 5.135-12.324t13.351-6.162h35.945q8.216 0 13.351 6.162t5.135 12.324v55.458h73.944v-55.458q0-7.189 5.135-12.324t12.324-6.162h36.972q7.189 0 13.351 6.162t5.135 12.324zM807.227 589.214v-733.282q0-15.405-11.297-25.675t-25.675-11.297h-733.282q-15.405 0-25.675 11.297t-11.297 25.675v733.282q0 15.405 11.297 25.675t25.675 11.297h182.807v164.32q0 23.621 16.432 39.026t39.026 16.432h256.751q22.594 0 39.026-16.432t15.405-39.026v-164.32h183.834q15.405 0 25.675-11.297t11.297-25.675z" />
</font>
</defs>
</svg>
